<?xml version="1.0" encoding="utf-8"?>
<!-- Generator: Adobe Illustrator 24.1.1, SVG Export Plug-In . SVG Version: 6.00 Build 0)  -->
<svg version="1.1" id="Layer_1" xmlns="http://www.w3.org/2000/svg" xmlns:xlink="http://www.w3.org/1999/xlink" x="0px" y="0px"
	 viewBox="0 0 500 500" style="enable-background:new 0 0 500 500;" xml:space="preserve">
<style type="text/css">
	.st0{fill:#FFFFFF;}
</style>
<g>
	<g>
		<path class="st0" d="M381.1,118l-32.4,8.6l7.9,7.9l-65.9,65.6l-28.2-40.5c-1.2-1.8-3.4-2.7-5.6-2.3c-2.1,0.4-3.9,1.9-4.4,4.1
			l-33.2,122.1L194.6,239c-0.9-1.5-2.4-2.6-4.1-2.8c-1.7-0.2-3.5,0.3-4.7,1.6l-48.5,48.5c-2.2,2.2-2.2,5.7,0,7.9
			c2.2,2.2,5.7,2.2,7.9,0l43.3-43.3l27.9,50c1,1.8,2.9,2.9,4.9,2.9c0.2,0,0.5,0,0.7,0c2.3-0.3,4.1-1.9,4.7-4.1l33.6-123.8l25.1,36.1
			c0.9,1.4,2.4,2.2,4.1,2.4c1.6,0.1,3.3-0.4,4.5-1.6l70.6-70.3l7.9,7.9L381.1,118z"/>
		<g>
			<polygon class="st0" points="156.3,289.7 156.3,357.2 190.1,357.2 190.1,263.8 187.3,258.8 			"/>
			<path class="st0" d="M222.4,308.5c-0.4,0.1-0.8,0.1-1.3,0.1c-3.8,0-7.2-2-9.1-5.3l-14.8-26.5v80.4h33.8v-56
				C229.9,305.2,226.5,308,222.4,308.5z"/>
			<polygon class="st0" points="238.2,274.9 238.2,357.2 272,357.2 272,201.3 262.1,187 			"/>
			<path class="st0" d="M289.9,219.2c-0.3,0-0.6,0-0.9,0c-3.1-0.3-5.9-1.9-7.6-4.4l-2.2-3.1v145.6H313V200.5l-15.7,15.6
				C295.3,218.1,292.7,219.2,289.9,219.2z"/>
			<polygon class="st0" points="320.1,357.2 353.9,357.2 353.9,159.8 320.1,193.4 			"/>
		</g>
	</g>
	<g>
		<polygon class="st0" points="132.2,369.2 132.2,148.4 127.4,148.4 127.4,369.2 127.4,374.1 132.2,374.1 381.1,374.1 381.1,369.2 
					"/>
		<g>
			<rect x="149.7" y="369.4" class="st0" width="4.9" height="12.6"/>
			<rect x="208.4" y="369.4" class="st0" width="4.9" height="12.6"/>
			<rect x="267.1" y="369.4" class="st0" width="4.9" height="12.6"/>
			<rect x="325.9" y="369.4" class="st0" width="4.9" height="12.6"/>
		</g>
		<g>
			<rect x="118.9" y="170.7" class="st0" width="12.6" height="4.9"/>
			<rect x="118.9" y="229.4" class="st0" width="12.6" height="4.9"/>
			<rect x="118.9" y="288.1" class="st0" width="12.6" height="4.9"/>
			<rect x="118.9" y="346.9" class="st0" width="12.6" height="4.9"/>
		</g>
	</g>
</g>
</svg>
