<?xml version="1.0" encoding="utf-8"?>
<!-- Generator: Adobe Illustrator 24.1.1, SVG Export Plug-In . SVG Version: 6.00 Build 0)  -->
<svg version="1.1" id="Layer_1" xmlns="http://www.w3.org/2000/svg" xmlns:xlink="http://www.w3.org/1999/xlink" x="0px" y="0px"
	 viewBox="0 0 500 500" style="enable-background:new 0 0 500 500;" xml:space="preserve">
<style type="text/css">
	.st0{fill:#FFFFFF;}
</style>
<g>
	<path class="st0" d="M229.18,422c-2.87-1.32-5.99-1.02-9-1.29c-21.56-1.93-42.78-5.4-63.02-13.44
		c-8.77-3.48-17.16-7.73-23.85-14.56c-13.52-13.79-12.61-30.58,2.13-43.18c8.4-7.17,18.35-11.38,28.6-14.99
		c6.96-2.45,14.15-4.09,21.28-5.91c2.84-0.72,3.26,0.29,3.59,2.76c1.66,12.18,3.08,24.42,5.42,36.48
		c3.98,20.48,20.12,33.26,41.04,33.27c8.62,0,17.24,0.01,25.86,0c22.27-0.02,39.09-15.09,41.86-37.28
		c1.43-11.43,3.18-22.81,4.77-34.22c0.18-1.29,0.25-2.27,2.19-1.86c17.44,3.65,34.62,8.05,49.69,18.12
		c7.21,4.82,13.2,10.8,15.52,19.51c3.34,12.56-1.99,22.06-11.28,29.78c-12.16,10.1-26.82,14.88-41.83,18.71
		c-16.74,4.27-33.8,6.42-51.03,7.45c-0.6,0.04-1.39-0.29-1.65,0.66c-0.67,0-1.34,0-2.02,0c-0.43-0.46-1-0.31-1.52-0.35
		c-0.41,0-0.82,0-1.23,0c-0.66,0.08-1.38-0.22-1.95,0.35c-1.12,0-2.24,0-3.36,0c-1.06-0.7-2.24-0.19-3.36-0.35
		c-1.12,0.16-2.3-0.36-3.36,0.35c-1.79,0-3.58,0-5.37,0c-1.08-0.7-2.29-0.19-3.43-0.35c-1.31,0.17-2.69-0.38-3.96,0.35
		c-0.9,0-1.79,0-2.69,0c-0.57-0.57-1.3-0.26-1.95-0.35c-0.41,0-0.82,0-1.23,0c-0.53,0.03-1.09-0.12-1.52,0.35
		C231.42,422,230.3,422,229.18,422z"/>
	<path class="st0" d="M239.93,422c1.16-1.29,2.66-0.42,3.99-0.62c0.24,0.12,0.33,0.26,0.26,0.4c-0.07,0.15-0.14,0.22-0.22,0.22
		C242.61,422,241.27,422,239.93,422z"/>
	<path class="st0" d="M243.96,422c0-0.21-0.02-0.41-0.04-0.62c1.16,0.07,2.43-0.48,3.4,0.62C246.2,422,245.08,422,243.96,422z"/>
	<path class="st0" d="M252.69,422c0.97-1.1,2.24-0.54,3.4-0.61c0.2,0.15,0.26,0.29,0.18,0.42c-0.07,0.13-0.15,0.19-0.22,0.19
		C254.93,422,253.81,422,252.69,422z"/>
	<path class="st0" d="M256.05,422c0-0.21,0.02-0.41,0.04-0.62c1.12,0.14,2.4-0.57,3.32,0.62C258.29,422,257.17,422,256.05,422z"/>
	<path class="st0" d="M235.2,421.42c0.75-0.07,1.57-0.35,2.04,0.58c-0.67,0-1.34,0-2.02,0c-0.21-0.12-0.29-0.25-0.22-0.38
		C235.06,421.49,235.13,421.42,235.2,421.42z"/>
	<path class="st0" d="M262.77,422c0.47-0.93,1.28-0.65,2.04-0.57c0.2,0.14,0.26,0.27,0.19,0.39c-0.07,0.12-0.14,0.18-0.21,0.18
		C264.11,422,263.44,422,262.77,422z"/>
	<path class="st0" d="M232.53,422c0.16-0.86,0.77-0.65,1.32-0.57c0.23,0.12,0.31,0.24,0.24,0.37c-0.07,0.13-0.15,0.2-0.22,0.2
		C233.43,422,232.98,422,232.53,422z"/>
	<path class="st0" d="M233.88,422c0-0.19,0-0.38-0.02-0.57c0.45-0.01,0.89-0.01,1.34-0.02c0.02,0.19,0.03,0.39,0.02,0.58
		C234.77,422,234.33,422,233.88,422z"/>
	<path class="st0" d="M264.78,422c0-0.19,0.01-0.38,0.03-0.57c0.45,0,0.89,0.01,1.34,0.01c0.2,0.13,0.27,0.26,0.2,0.38
		c-0.07,0.12-0.14,0.18-0.21,0.18C265.68,422,265.23,422,264.78,422z"/>
	<path class="st0" d="M266.13,422c0-0.19,0-0.38,0.02-0.56c0.56-0.09,1.17-0.31,1.33,0.56C267.02,422,266.57,422,266.13,422z"/>
	<path class="st0" d="M248.17,384.94c-4.37,0-8.73,0.01-13.1,0c-13.45-0.05-23.43-8.64-25.35-21.98
		c-3.64-25.23-7.22-50.48-10.72-75.73c-0.25-1.81-1.08-2.75-2.48-3.61c-6.48-3.97-12.85-8.11-19.39-11.97
		c-4.64-2.74-6.42-6.57-5.65-11.8c2.9-19.92,5.51-39.88,8.73-59.75c3.24-20.01,19.52-35.86,39.49-39.18c3-0.5,5.85-0.28,8.8,0.98
		c12.26,5.22,24.93,5.83,37.22,0.81c6.77-2.76,12.96-2.22,19.12,0.19c18.99,7.42,29.49,21.63,32.31,41.71
		c2.59,18.38,5.19,36.76,7.89,55.13c0.75,5.11-0.79,8.95-5.24,11.66c-6.68,4.07-13.28,8.26-19.96,12.34
		c-1.33,0.81-2.02,1.69-2.25,3.36c-3.49,25.03-7.15,50.04-10.62,75.07c-1.95,14.02-11.79,22.78-26.02,22.8
		C256.68,384.94,252.42,384.94,248.17,384.94z"/>
	<path class="st0" d="M283.86,113.85c0.03,19.64-15.93,35.83-35.42,35.95c-19.51,0.12-35.86-16.22-35.89-35.88
		c-0.04-19.66,16.24-35.97,35.83-35.91C267.9,78.06,283.83,94.16,283.86,113.85z"/>
</g>
</svg>
