<?xml version="1.0" encoding="utf-8"?>
<!-- Generator: Adobe Illustrator 24.1.1, SVG Export Plug-In . SVG Version: 6.00 Build 0)  -->
<svg version="1.1" id="Layer_1" xmlns="http://www.w3.org/2000/svg" xmlns:xlink="http://www.w3.org/1999/xlink" x="0px" y="0px"
	 viewBox="0 0 500 500" style="enable-background:new 0 0 500 500;" xml:space="preserve">
<style type="text/css">
	.st0{fill:#FFFFFF;}
</style>
<g>
	<path class="st0" d="M341.7,176.3l-36.2-40.6c-1-1.1-2.4-1.8-4-1.8H162.2c-2.9,0-5.3,2.4-5.3,5.3v221.4c0,2.9,2.4,5.3,5.3,5.3
		h175.6c2.9,0,5.3-2.4,5.3-5.3V179.9C343.1,178.6,342.6,177.3,341.7,176.3z M307.8,154.2l19,21.3h-19V154.2z M167.5,355.4V144.6
		h129.7v36.2c0,2.9,2.4,5.3,5.3,5.3h30v169.4L167.5,355.4L167.5,355.4z"/>
	<path class="st0" d="M306.9,203.7H191.3c-2.9,0-5.3,2.4-5.3,5.3s2.4,5.3,5.3,5.3h115.6c2.9,0,5.3-2.4,5.3-5.3
		S309.8,203.7,306.9,203.7z"/>
	<path class="st0" d="M306.9,246.3H191.3c-2.9,0-5.3,2.4-5.3,5.3c0,2.9,2.4,5.3,5.3,5.3h115.6c2.9,0,5.3-2.4,5.3-5.3
		C312.2,248.6,309.8,246.3,306.9,246.3z"/>
	<path class="st0" d="M306.9,293.4H191.3c-2.9,0-5.3,2.4-5.3,5.3s2.4,5.3,5.3,5.3h115.6c2.9,0,5.3-2.4,5.3-5.3
		S309.8,293.4,306.9,293.4z"/>
</g>
</svg>
