<?xml version="1.0" encoding="utf-8"?>
<!-- Generator: Adobe Illustrator 24.1.1, SVG Export Plug-In . SVG Version: 6.00 Build 0)  -->
<svg version="1.1" id="Layer_1" xmlns="http://www.w3.org/2000/svg" xmlns:xlink="http://www.w3.org/1999/xlink" x="0px" y="0px"
	 viewBox="0 0 500 500" style="enable-background:new 0 0 500 500;" xml:space="preserve">
<style type="text/css">
	.st0{fill:#FD6500;}
	.st1{fill:#FEFEFE;}
	.st2{fill:#FDFDFD;}
	.st3{fill:#FDFEFD;}
	.st4{fill:#E4AB87;}
	.st5{fill:#EB984E;}
	.st6{fill:#EC6F16;}
	.st7{fill:#EC944B;}
	.st8{fill:#F7ECDE;}
	.st9{fill:#FBF8EF;}
	.st10{fill:#E4905A;}
	.st11{fill:#FE6600;}
	.st12{fill:#F86E11;}
	.st13{fill:#DE7F40;}
	.st14{fill:#FD6501;}
</style>
<g>
	<g>
		<path class="st0" d="M250.3,501.44c-82.67,0-165.33-0.01-248,0.05c-1.84,0-2.25-0.42-2.25-2.27c0.05-166.13,0.05-332.25,0-498.38
			c0-1.85,0.41-2.27,2.25-2.27c165.33,0.05,330.67,0.05,496,0c1.84,0,2.25,0.42,2.25,2.27c-0.05,166.13-0.05,332.25,0,498.38
			c0,1.85-0.41,2.27-2.25,2.27C415.63,501.43,332.97,501.44,250.3,501.44z"/>
		<path class="st1" d="M316.12,467.94c1.98,0.05,3.87-0.5,5.8-0.86c0.81-0.15,1.91-0.67,2.32,0.57c1.59,4.78,5.69,5.41,9.76,6
			c1.6,0.23,3.27,0.18,4.89,0.05c7.23-0.58,10.83-4.03,11.88-11.59c0.49-3.55,0.39-7.16,0.07-11.29
			c-8.17,11.38-18.89,11.18-29.86,6.9c-9.13-3.57-13.97-11.25-15.77-20.85c-0.25-1.18-0.4-2.39-0.86-3.52
			c-0.93-7.14-0.83-14.25,0.91-21.27c2.85-11.53,10.77-22.84,25.08-23.81c7.88-0.54,15.5,0.79,20.93,7.61
			c0.13,0.16,0.38,0.22,0.76,0.43c0.33-1.79,0.68-3.44,0.94-5.11c0.2-1.28,0.8-1.74,2.13-1.72c3.84,0.07,7.68,0.1,11.52-0.05
			c1.93-0.08,2.47,0.49,2.45,2.46c-0.09,13.56-0.05,27.12-0.05,40.67c0,9.2,0.04,18.41-0.03,27.61c-0.03,4.8-1.03,9.44-3.2,13.73
			c-3.3,6.51-9.02,9.91-15.75,11.73c-8.22,2.23-16.59,2.78-24.95,0.96c-7.99-1.74-14.84-5.29-18.32-13.38
			c-1.35-3.14-1.31-3.24,1.97-3.86c1.12-0.21,2.25-0.37,3.37-0.55C313.4,468.3,314.78,468.19,316.12,467.94z"/>
		<path class="st1" d="M46.21,459.09c-11.62-5.64-17.3-15.28-18.71-27.88c-0.78-6.94-0.44-13.76,1.68-20.44
			c3.39-10.72,10.38-17.91,21.09-21.16c10.83-3.29,21.36-2.3,31.02,3.76c8.37,5.25,12.69,13.34,14.22,22.98
			c1.84,11.6,0.86,22.77-6.08,32.66c-5.57,7.93-13.57,11.86-23.05,12.96c-6.35,0.74-12.52-0.04-18.55-2.07
			C47.24,459.75,46.69,459.49,46.21,459.09z"/>
		<path class="st1" d="M190.51,413.66c0.16,0,0.33,0.02,0.49-0.01c1.83-0.27,4.33,0.54,5.23-1.43c1.3-2.87-0.16-6.8-2.43-8.68
			c-2.01-1.67-4.44-2.06-6.86-2.23c-6.8-0.47-12.55,2.16-17.47,6.66c-1.07,0.98-1.62,1.01-2.75,0.32
			c-3.46-2.11-6.99-4.08-10.58-6.15c5.15-7.54,12.34-11.6,20.96-13.13c7.22-1.28,14.45-1.11,21.58,0.89
			c9.69,2.72,15.81,9.16,15.78,19.9c-0.05,15.95-0.04,31.9,0.05,47.85c0.01,2-0.46,2.7-2.54,2.62c-4-0.16-8.01-0.13-12.01,0.01
			c-1.69,0.06-2.4-0.63-2.61-2.15c-0.03-0.24-0.03-0.5-0.08-0.73c-0.67-3.03-0.79-3.07-3.46-1.59c-7.49,4.16-15.56,6.12-24.01,5.03
			c-10.17-1.31-16.46-8.25-17.13-18.85c-0.63-9.99,4.36-16.58,12.74-20.98c6.62-3.47,13.77-5.34,21.11-6.52
			C187.81,414.03,189.17,413.9,190.51,413.66z"/>
		<path class="st1" d="M442.61,445.23c0.86,0.7,1.06,1.2,0.3,2.37c-4.13,6.33-10.02,10.28-17.06,12.2
			c-7.7,2.1-15.56,2.44-23.45,0.36c-9.44-2.49-16.07-8.34-19.41-17.32c-4.62-12.42-4.64-25.04,0.7-37.37
			c4.12-9.52,11.57-14.86,21.64-16.63c10.04-1.77,19.52-0.58,27.8,5.9c5.91,4.62,8.91,11.05,10.44,18.24
			c0.81,3.78,1.15,7.61,1.03,11.5c-0.12,3.83,0.28,3.36-3.51,3.36c-13.32,0.02-26.65,0.06-39.97-0.07c-2.45-0.02-2.98,0.7-2.79,3.04
			c0.26,3.33,0.92,6.51,2.46,9.42c3.1,5.89,8.43,7.42,14.57,7.23c5.78-0.19,10.29-2.73,13.58-7.45c1.49-2.15,2.65-0.84,3.9,0.18
			c0.41,0.79,1.33,0.63,1.94,1.05l0,0c0.44,0.49,1.03,0.72,1.63,0.93c0.14-0.05,0.25-0.01,0.32,0.12c0.43,0.43,1.03,0.57,1.51,0.91
			c0.81,0.33,1.63,0.66,2.44,0.99C441.28,444.61,442.23,444.39,442.61,445.23z"/>
		<path class="st1" d="M228.71,425.72c0-10.52,0.02-21.05-0.02-31.57c-0.01-1.64,0.07-2.68,2.21-2.85
			c3.97-0.31,7.91-1.01,11.86-1.59c0.95-0.14,1.52-0.07,1.67,1.11c0.2,1.62,0.77,3.2,0.91,4.82c0.17,2.02,1,1.65,2.15,0.84
			c4.2-2.95,8.55-5.66,13.54-7.07c7.49-2.12,14.82-1.98,21.75,1.97c4.21,2.41,6.46,6.37,7.64,10.93c0.8,3.09,1.12,6.27,1.11,9.51
			c-0.07,15.29-0.07,30.59,0.02,45.88c0.01,1.99-0.57,2.48-2.45,2.43c-4.66-0.12-9.32-0.13-13.98,0c-1.82,0.05-2.31-0.46-2.3-2.32
			c0.08-14.63,0.04-29.27,0.06-43.9c0-1.82-0.11-3.62-0.55-5.38c-1.2-4.83-4.15-6.95-9.1-6.53c-5.92,0.51-10.75,3.42-15.26,7.03
			c-0.86,0.69-0.7,1.6-0.7,2.48c0,15.29-0.04,30.59,0.06,45.88c0.02,2.16-0.49,2.83-2.67,2.75c-4.65-0.17-9.32-0.14-13.98-0.02
			c-1.68,0.04-2.01-0.54-2-2.09C228.74,447.26,228.71,436.49,228.71,425.72z"/>
		<path class="st1" d="M126.17,397.59c3.23-3.13,6.19-5.44,9.67-7.04c3.09-1.42,6.31-2.05,9.67-2.26c1.82-0.11,2.42,0.63,2.38,2.43
			c-0.1,4.35-0.1,8.71-0.01,13.06c0.03,1.69-0.53,2.3-2.23,2.31c-4.41,0.04-8.77,0.4-12.86,2.33c-3.46,1.64-5.31,3.91-5.24,8.13
			c0.23,13.63,0.03,27.27,0.12,40.91c0.01,2.09-0.39,2.89-2.63,2.81c-4.81-0.17-9.64-0.09-14.46-0.03c-1.43,0.02-2-0.37-2-1.94
			c0.05-22.1,0.05-44.2-0.01-66.29c0-1.7,0.43-2.3,2.17-2.26c4.49,0.1,8.99,0.11,13.48,0c1.71-0.04,2.09,0.64,1.99,2.16
			C126.09,393.54,126.17,395.18,126.17,397.59z"/>
		<path class="st2" d="M477.07,369.31c-2.02,5.24-4.06,10.48-6.06,15.74c-0.37,0.98-0.94,1.42-2,1.4c-1.07-0.02-1.53-0.46-1.91-1.47
			c-1.89-5.04-3.89-10.04-5.85-15.05c-0.12-0.3-0.17-0.64-0.97-0.53c0,1.85,0,3.76,0,5.67c0,3.12-0.08,6.25,0.03,9.36
			c0.06,1.6-0.41,2.07-2.04,2.09c-1.76,0.02-1.96-0.74-1.95-2.2c0.06-6.41,0.07-12.81-0.01-19.22c-0.02-1.49,0.35-1.95,1.89-1.95
			c4.16-0.01,4.18-0.11,5.72,3.81c1.46,3.72,2.84,7.46,4.28,11.19c0.19,0.5,0.52,0.95,1.04,1.86c1.37-3.49,2.58-6.55,3.76-9.62
			c0.73-1.9,1.45-3.81,2.08-5.75c0.46-1.42,1.5-1.46,2.7-1.47c4.07-0.03,4.07-0.05,4.07,3.92c0,5.75-0.03,11.5,0.02,17.25
			c0.01,1.44-0.13,2.22-1.93,2.2c-1.79-0.02-2.21-0.64-2.13-2.3c0.12-2.54,0.03-5.09,0.03-7.64c-0.36-2.03-0.04-4.07-0.18-6.1
			C477.64,370.07,478.13,369.25,477.07,369.31z"/>
		<path class="st3" d="M440.65,376.39c0-2.71-0.06-5.42,0.02-8.13c0.04-1.36-0.36-1.97-1.79-1.86c-1.22,0.09-2.45-0.06-3.67,0.02
			c-1.35,0.09-1.89-0.36-1.88-1.8c0.01-1.54,0.93-1.45,1.94-1.45c4.9,0.01,9.79,0.02,14.69-0.02c1.23-0.01,2,0.16,1.96,1.71
			c-0.04,1.42-0.76,1.51-1.88,1.55c-5.47,0.19-5.47,0.22-5.47,5.74c0,4.19-0.06,8.37,0.03,12.56c0.03,1.45-0.49,1.84-1.84,1.75
			c-1.19-0.07-2.25,0.12-2.15-1.72C440.76,381.98,440.65,379.18,440.65,376.39z"/>
		<path class="st4" d="M477.07,369.31c0.53-1.22,0.87-0.82,0.88,0.16c0.02,2.37-0.06,4.74-0.1,7.11
			C476.99,374.23,478.18,371.65,477.07,369.31z"/>
		<path class="st5" d="M190.51,413.66c-1.25,0.66-2.61,0.8-4,0.83C187.69,413.46,189.09,413.52,190.51,413.66z"/>
		<path class="st6" d="M442.61,445.23c-0.83,0-1.38-0.52-1.94-1.05C441.85,443.54,442.79,443.34,442.61,445.23z"/>
		<path class="st7" d="M316.12,467.94c-1.26,0.68-2.62,0.81-4.01,0.84C313.29,467.74,314.7,467.81,316.12,467.94z"/>
		<path class="st8" d="M304.36,433.34c0.91,1.02,1.02,2.24,0.86,3.52C304.64,435.76,304.29,434.6,304.36,433.34z"/>
		<path class="st9" d="M434.77,441.24c-0.82-0.02-1.98,0.58-1.94-1.05C433.65,440.21,434.25,440.66,434.77,441.24z"/>
		<path class="st9" d="M436.4,442.16c-0.76,0.07-1.37-0.11-1.63-0.93C435.52,441.18,435.95,441.68,436.4,442.16z"/>
		<path class="st9" d="M438.24,443.2c-0.71,0.03-1.28-0.16-1.51-0.91C437.43,442.24,437.83,442.73,438.24,443.2z"/>
		<path class="st10" d="M46.21,459.09c0.69-0.03,1.19,0.32,1.62,0.81C47.11,460.02,46.51,459.86,46.21,459.09z"/>
		<path class="st11" d="M351.24,423.37c-0.42,4.95-0.69,9.7-2.83,14.09c-2.6,5.32-7.03,7.42-12.71,7.36
			c-5.37-0.06-9.36-2.53-11.12-7.55c-3.19-9.07-3.46-18.36-0.06-27.43c1.84-4.9,5.46-8.02,11.05-8.16
			c5.86-0.14,10.06,2.53,12.84,7.6C350.85,413.73,351.19,418.63,351.24,423.37z"/>
		<path class="st11" d="M77.65,425.19c0.16,4.66-0.46,9.25-2.69,13.5c-2.58,4.92-6.65,7.31-12.17,7.59
			c-5.82,0.29-10.62-1.47-13.85-6.5c-1.97-3.07-2.73-6.61-3.05-10.2c-0.6-6.77-0.47-13.51,3.33-19.47c3.22-5.06,8.23-6.79,13.95-6.3
			c5.32,0.45,9.44,2.86,11.9,7.99C77.11,416.07,77.77,420.48,77.65,425.19z"/>
		<path class="st11" d="M170.9,439.27c0-0.17,0-0.33,0-0.5c0.57-0.98,0.59-2.1,0.83-3.16c0.97-3.84,4.1-5.53,7.24-7.02
			c4.91-2.33,10.26-3.08,15.55-4.01c1.22-0.21,1.38,0.41,1.37,1.36c-0.01,4.6-0.01,9.2-0.01,13.8c0,0.69-0.2,1.22-0.77,1.7
			c-4.78,4.07-10.09,6.85-16.54,6.69c-2.49-0.06-4.54-1.08-5.86-3.32c-0.22-0.57-0.44-1.15-0.89-1.59
			c-0.09-0.13-0.11-0.26-0.07-0.41C171.47,441.63,171.31,440.42,170.9,439.27z"/>
		<path class="st12" d="M170.9,439.27c0.91,1.03,1.01,2.26,0.86,3.54C170.98,441.75,170.74,440.56,170.9,439.27z"/>
		<path class="st12" d="M171.74,435.6c0.09,1.15,0.27,2.33-0.83,3.16C170.79,437.61,171.05,436.55,171.74,435.6z"/>
		<path class="st13" d="M171.83,443.22c0.76,0.27,1,0.83,0.89,1.59C172.17,444.43,171.77,443.95,171.83,443.22z"/>
		<path class="st14" d="M412.24,415.58c-4.08,0-8.16-0.02-12.23,0.01c-1.04,0.01-1.75-0.08-1.52-1.43
			c0.93-5.38,3.03-10.24,8.36-12.26c5.53-2.09,11.06-1.49,15.65,2.84c2.79,2.63,3.42,6.19,3.88,9.78c0.19,1.44-0.96,1.03-1.66,1.04
			C420.56,415.6,416.4,415.58,412.24,415.58z"/>
	</g>
</g>
</svg>
